<svg xmlns="http://www.w3.org/2000/svg" height="800" width="1200" viewBox="-12.728175 -10.973825 110.31085 65.84295"><g fill="none"><path fill="#0070AD" d="M69.5379 2.8226l2.39-.3944v5.4792h6.4633V9.547c0 1.0377-.8313 1.8678-1.8704 1.8678h-4.593v7.3886c0 1.4528.2287 2.5112.6859 3.1339.4572.6226 1.247.9339 2.3692.9339.769 0 1.434-.083 2.0367-.249.5819-.166 1.0599-.3114 1.4132-.4567l.4364 2.0755c.1663.7679-.1663 1.432-1.1223 1.764-.4987.1661-1.6625.4774-3.3044.4774-1.2885 0-2.39-.166-3.242-.5188-.8729-.3528-1.5587-.851-2.0783-1.515-.5195-.6642-.8728-1.4529-1.0806-2.4076-.2079-.934-.3118-2.0131-.3118-3.2169V4.9395c0-1.0377.769-1.9509 1.8081-2.117z"/><path fill="#FF4019" d="M84.8545 2.5943c0 .7886-.2494 1.4113-.769 1.8679-.5195.4566-1.1222.6849-1.808.6849-.7274 0-1.33-.2283-1.8496-.685-.5196-.4565-.769-1.0792-.769-1.8678 0-.8094.2494-1.4528.769-1.9094C80.9474.2283 81.55 0 82.2775 0c.6858 0 1.2885.2283 1.808.7056.5196.4774.769 1.0793.769 1.8887z"/><path fill="#0070AD" d="M84.3765 26.0674H83.192c-1.6833 0-3.0342-1.349-3.0342-3.0302V7.9074h1.434c1.5379 0 2.7848 1.2452 2.7848 2.781zm-34.7689-8.9659c0-1.598.2286-2.9886.7066-4.1924.478-1.2037 1.1014-2.1999 1.8912-2.9886.7897-.7886 1.6834-1.3905 2.7017-1.8056 1.0183-.3943 2.0574-.6019 3.1173-.6019 2.494 0 4.4475.768 5.8399 2.3245 1.3924 1.5566 2.099 3.8603 2.099 6.932 0 .2282 0 .498-.0208.7886-.0207.2906-.0207.5396-.0415.7887h-11.95c.1247 1.4528.6235 2.5735 1.5379 3.383.9144.7886 2.2445 1.2037 3.9694 1.2037 1.0184 0 1.9536-.083 2.7849-.2698.2078-.0416.4156-.083.6027-.1453.769-.1868 1.517.332 1.6418 1.1l.3117 1.8886c-.2286.1245-.5403.2283-.956.3528-.3948.1245-.8728.249-1.3924.3528-.5196.1038-1.0807.1868-1.6834.249-.6027.0623-1.2054.1039-1.8288.1039-1.6003 0-2.972-.2283-4.1565-.7057-1.1846-.4773-2.1406-1.1207-2.9095-1.9716-.769-.851-1.3301-1.8264-1.7042-2.968-.374-1.2037-.5611-2.449-.5611-3.8187zm12.1785-1.8679c0-.581-.0832-1.1207-.2494-1.6396-.1663-.5188-.3949-.9754-.7066-1.349-.3118-.3736-.6858-.6849-1.143-.8924-.4573-.2283-.9976-.332-1.621-.332-.6443 0-1.2055.1244-1.7042.3735-.478.249-.8937.5604-1.2262.9547a4.6098 4.6098 0 00-.7897 1.349 6.5485 6.5485 0 00-.3741 1.5566zM31.61 16.9562c0 1.432-.2078 2.7396-.6027 3.9226-.3948 1.183-.9767 2.1792-1.7249 3.0301-.7482.8302-1.621 1.4736-2.681 1.951-1.039.4565-2.182.6848-3.4498.6848-1.2677 0-2.39-.2283-3.4291-.6849-1.0391-.4566-1.912-1.1207-2.6602-1.9509-.7481-.8302-1.3092-1.8471-1.7249-3.0301-.4156-1.183-.6235-2.4905-.6235-3.9226 0-1.432.2079-2.7395.6235-3.9018.4157-1.1622.9976-2.1792 1.7457-3.0093.7482-.8302 1.6418-1.4736 2.681-1.9302 1.039-.4566 2.1613-.6849 3.3875-.6849s2.3692.2283 3.4083.685c1.0391.4565 1.9328 1.0999 2.681 1.93.7481.8302 1.3092 1.8264 1.7249 3.0094.4364 1.1623.6442 2.4698.6442 3.9018zm-4.1565 0c0-1.8056-.374-3.2376-1.1222-4.2961-.7482-1.0585-1.808-1.5773-3.1381-1.5773-1.3509 0-2.39.5188-3.1382 1.5773-.7482 1.0585-1.1222 2.4905-1.1222 4.2961 0 1.8264.374 3.2792 1.1222 4.3377.7482 1.0584 1.808 1.598 3.1382 1.598 1.3508 0 2.39-.5396 3.1381-1.598.7482-1.0585 1.1222-2.5113 1.1222-4.3377zm-13.9449 2.1792c-.2079-.581-.5404-1.1-.9976-1.5358-.4572-.4566-1.0183-.851-1.725-1.2245-.6858-.3528-1.5378-.7264-2.5354-1.1-.6027-.2075-1.1222-.415-1.5379-.6018-.4156-.1868-.7482-.3944-1.0183-.5812-.2494-.1867-.4365-.415-.5404-.6433-.1039-.2283-.1662-.4981-.1662-.7887 0-.6019.2701-1.0377.8105-1.3283.5403-.2905 1.2261-.4358 2.0782-.4358.6858 0 1.3301.0415 1.8912.1453l.3533.0622c1.2262.1453 2.3692-.6226 2.6186-1.8471l.187-.9132c-.8312-.2905-1.6418-.4566-2.1821-.5604-.7274-.1452-1.8289-.2905-3.055-.2905-2.1198 0-3.7824.4773-5.0086 1.432-1.2261.9547-1.8496 2.283-1.8496 3.9433 0 .851.1247 1.5774.3949 2.1792.2701.5812.6234 1.1 1.1014 1.5151.4572.415 1.0184.7887 1.6418 1.1.6443.3113 1.3301.6018 2.099.8924 1.247.4566 2.1406.8924 2.7018 1.2868.5403.3943.8105.8924.8105 1.4943 0 .6434-.2494 1.1-.769 1.3698-.5195.2698-1.33.3943-2.4315.3943-1.1638 0-2.0575-.1245-2.6186-.2698-.4572-.1038-.7482-.2076-1.143-.2076-1.0807 0-2.0783.685-2.39 1.7642L0 25.2579c.4988.2283 1.6834.6227 2.4939.8302.8728.2283 1.9535.415 3.8863.415 2.39 0 4.2188-.4357 5.5073-1.3282 1.2885-.8924 1.9328-2.2 1.9328-3.9433 0-.8094-.104-1.515-.3117-2.0962z"/><path fill="#12ABDB" d="M82.4853 38.6444c1.2678 0 2.2653-1.0377 2.286-2.283-.083-.5395-.27-1.5358-1.6833-1.5358-1.5379 0-2.0367 2.1377-3.2836 3.5075-.104.7887-.852 1.4736-1.7665 1.5981.2286.2283.7274.3736 1.33.3736 1.1015 0 2.4316-.3321 3.1382-1.017-.9352.0208-1.5379-.5811-1.6002-1.4113.478.5604.9767.768 1.5794.768z"/><path d="M72.676 35.2407c0-.6849-.0415-1.1415-.478-1.1415-.2078 0-.291.0416-.478.1038.1663 2.283-.3533 4.317-.9975 4.317-.8313 0-.4157-4.9189-2.1822-4.9189-1.621 0-1.8496 3.9226-2.0366 3.9226-.1247 0-.1455-1.0377-.1455-1.8056.0623-.3736.1039-.7057.1039-.9755 0-.3735-.1455-.9962-.9768-.6849.0208 2.8019-.5403 4.5037-1.1638 4.5037-.9352 0-.9352-2.5528-.9352-3.2376 0-.685.0416-1.5981-.9768-1.266-.1454 2.449-.7897 4.296-1.2053 4.296-.6027 0-.478-4.2338-1.7873-4.2338-1.1638 0-1.538 4.0056-1.7873 4.0056-.4364 0 .1455-4.5037-1.5587-4.5037-.8936 0-1.247 1.515-1.6002 3.1962-.0624.332-.1455.332-.1455-.0416 0-.3113-.0208-.6433 0-.9339.4364-1.7018-.104-2.3245-.8729-1.8679.2494 3.134-1.1846 4.649-2.286 4.649-.395 0-.7066-.166-.9352-.4359 1.33-.8094 1.912-1.7433 1.912-2.6358 0-.9754-.5612-1.5565-1.4964-1.5565-1.3093 0-2.0367 1.349-2.0367 2.4905 0 .6226.1247 1.1415.3118 1.5773-.4573.2076-.8729.3943-1.2678.5811-.0415-1.183-.1662-2.4075-.2701-3.549-.7066-.1867-.8937.1453-.956.768-.1247 1.4113-.6443 2.3037-1.1223 2.3037-.3533 0-.5611-.4151-.5819-.8717-.1247-2.2622 1.7042-2.9056 2.681-2.5735.2078-.4981-.0208-.851-.8937-.851-1.0599 0-1.8496.6434-2.4315 1.4529-.3949.5396-.8313.9339-1.434 1.4112.0208-.1452.0208-.2698.0208-.3943 0-1.598-.8729-2.3037-1.7042-2.3037-.6858 0-1.1222.415-1.3716 1.0377-.0624-.6226-.187-.9132-.5612-.9132-.1662 0-.374.0415-.6027.166.104.3529.1455 1.1415.1455 1.6396 0 1.9302-.5611 2.7811-1.0807 2.7811-.6026 0-.7066-2.283-.7481-3.1754-.0832-.0208-.1663-.0623-.291-.0623-.5403 0-.6235.7264-.7481 1.4113-.1455.7472-.582 1.7019-1.2262 1.7019-.3949 0-.6235-.3736-.665-1.0377-.0624-1.3698 1.0599-2.9679 2.8471-2.4698.2287-.5396-.1246-.9547-.8728-.9547-1.2885 0-2.3692.9755-2.8264 2.117-.478 1.0584-1.3093 2.5942-2.9927 2.5942-1.1846 0-2.099-1.0377-2.099-3.2169 0-1.8886 1.1846-3.6735 2.4523-3.6735.8937 0 1.0807.8717 1.0184 1.6811.4572.3736 1.2053.0208 1.2053-.8924 0-.6434-.5195-1.7019-2.1821-1.7019-2.0575 0-3.8655 2.0547-3.8655 4.732 0 2.615 1.33 4.1508 3.2004 4.1508 1.1846 0 2.3069-.664 3.0758-1.9093.187 1.0792.9352 1.5565 1.4964 1.5565.8936 0 1.4963-.581 1.808-1.3698.2079.7887.6235 1.3698 1.3301 1.3698.4988 0 .8729-.249 1.1638-.6434-.1247 2.7396-.2701 4.5037 1.3717 4.1509-.2494-.7887-.3326-2.2-.3326-3.4867 0-3.4867.582-4.649 1.3093-4.649.5196 0 .6859.6642.6859 1.3698 0 .3736-.0416.8094-.1247 1.2245-.8937.5604-1.6003.9962-1.6003 1.5566 0 .4358.3325.4773.6235.4773.6858 0 1.4963-.6641 1.9535-1.9301.3949-.249.7898-.5189 1.1846-.8925-.0207.1246-.0207.2491-.0207.3944 0 1.2452.5403 2.0131 1.434 2.0131.6858 0 1.2053-.4773 1.5586-1.2037.0208.415.0416.8094.0416 1.1622-1.3924.6434-2.9303 1.2868-2.9303 3.1132 0 .934.6858 1.6396 1.5586 1.6396 1.9328 0 2.39-2.0547 2.39-4.4207.6235-.2698 1.1015-.4773 1.6418-.7472.4572.5812 1.1015.8717 1.6834.8717 1.1015 0 1.912-.581 2.577-1.764.1247.8923.3533 1.764.8313 1.764.8729 0 1.0391-4.5244 1.6834-4.5244.4988 0 .0831 4.898 1.3924 4.898 1.1223 0 1.33-4.3169 1.8704-4.3169.3949 0 .4157 3.9433 1.6418 3.9433.6027 0 1.247-.7264 1.5795-2.2207.1455.9962.665 2.2207 1.6418 2.2207.582 0 1.0807-.581 1.4548-1.349.1039.7887.3325 1.349.769 1.349 1.143 0 1.1014-4.5244 1.995-4.5244.7066 0 .478 4.5244 2.1614 4.5244.7897 0 1.1638-.6849 1.3924-1.5358.3118 1.2453.8105 1.5358 1.2054 1.5358.2494 0 .4572-.083.7066-.3943-1.33-.6019-1.2262-2.6358-1.2262-3.964zm-27.3496 7.7621c-.3949 0-.6235-.3736-.6235-.8094 0-1.1622.8521-1.7849 1.912-2.3037-.0623 2.5528-.6442 3.1131-1.2885 3.1131zm5.2164-8.2187c.3949 0 .6235.3529.5819.8717-.0416.6019-.478 1.3075-1.247 1.8471-.4156-1.1207-.1246-2.7188.665-2.7188zm12.3655-1.7018c.3741-.0208.6235-.332.6443-.7057 0-.3735-.2494-.6848-.6235-.664-.374.0207-.6858.332-.6858.7056 0 .3735.3117.6848.665.664zm9.269.1867c.3325-.0207.6234-.3112.6234-.6848 0-.3528-.2701-.6434-.6027-.6434-.3325.0208-.6234.3113-.6234.6849 0 .3736.2701.6641.6027.6434zm12.5941 3.0094c-.0208-1.432-.7066-2.6357-1.7665-3.6112-.7897-.7264-1.7457-1.2868-2.7433-1.7018-.0831-.0416-.1662-.0623-.2494-.1038-1.2261 1.4735-5.4657 2.5528-5.4657 5.6451 0 1.2038.7689 2.3245 1.8704 2.7811.6442.249 1.2885.249 1.9327.0415.582-.1868 1.0392-.5396 1.434-.9754 1.247-1.3698 1.7457-3.5075 3.2836-3.5075 1.3925 0 1.5795.9962 1.6834 1.5358.0208-.0207.0208-.0415.0208-.1038z" fill="#0070AD"/><path fill="#0070AD" d="M10.0587 34.971c.5403 0 .956.1037 1.2261.2905.291.1868.4365.498.4365.9132 0 .2075-.0416.3943-.104.5603-.083.1453-.187.2906-.3325.3736-.1454.1038-.3325.166-.5403.2076-.2078.0415-.4572.0622-.7274.0622h-.3325v1.3075h-.665v-3.632c.1454-.0415.3325-.0622.5195-.0622.187 0 .3533-.0208.5196-.0208zm.0415.581c-.1662 0-.3117 0-.4156.0208v1.2453h.3325c.3325 0 .5611-.0415.7482-.1453.1662-.083.2702-.2698.2702-.5189 0-.1245-.0208-.2283-.0624-.3113a.4075.4075 0 00-.187-.1868c-.0832-.0415-.187-.083-.291-.1037-.1455.0207-.2494 0-.3949 0zm2.8472.2906c.2079 0 .3949.0208.5404.083.1455.0623.2701.1246.3533.2283.0831.1038.1455.2076.187.3528.0416.1453.0624.2906.0624.4566v1.6811c-.104.0208-.2494.0415-.4572.083-.2079.0208-.4365.0416-.6859.0416-.1662 0-.3117-.0208-.4572-.0415-.1455-.0416-.2494-.083-.3533-.1453-.1039-.0623-.1662-.166-.2286-.2698-.0623-.1038-.0831-.249-.0831-.4151 0-.166.0208-.2906.0831-.3943.0624-.1038.1455-.2076.2494-.2699.104-.0622.2286-.1245.374-.1452.1456-.0208.291-.0415.4365-.0415.0624 0 .1455 0 .2286.0207.0832 0 .1663.0208.2494.0415v-.1038c0-.083 0-.1452-.0208-.2075-.0207-.0623-.0415-.1245-.1039-.1868-.0623-.0622-.1039-.083-.1662-.1245-.0832-.0208-.1663-.0415-.2702-.0415-.1455 0-.291.0207-.4157.0415-.1247.0207-.2286.0415-.3117.083l-.0831-.5188c.0831-.0208.2078-.0623.3533-.083.1662-.1038.3325-.1246.5195-.1246zm.0624 2.4075c.2078 0 .3533-.0207.4572-.0415v-.7057c-.0416-.0207-.0831-.0207-.1455-.0415-.0623-.0207-.1455-.0207-.2286-.0207-.0623 0-.1455 0-.2078.0207-.0831.0208-.1455.0208-.2078.0623-.0624.0207-.104.0623-.1455.1245-.0416.0415-.0624.1245-.0624.1868 0 .1453.0416.249.1455.3113.0831.083.2286.1038.3949.1038zm3.055-1.7434c-.0624-.0207-.1247-.0415-.2286-.0622-.104-.0208-.2078-.0208-.3325-.0208-.0624 0-.1455 0-.2286.0208-.0832.0207-.1455.0207-.1663.0415v2.2207h-.6235v-2.6565a4.5292 4.5292 0 01.4572-.1246c.187-.0415.395-.0622.6235-.0622h.1455c.0623 0 .1039.0207.1663.0207.0623 0 .1039.0208.1662.0415.0624.0208.104.0208.1247.0415zm.3949-1.3282l.6442-.1038v.8302h.9976v.5396h-.9976v1.1415c0 .2283.0416.3735.104.4773.0623.1038.187.1453.3532.1453.1247 0 .2286-.0208.3118-.0415.083-.0208.1662-.0415.2078-.0623l.1039.5189c-.0831.0415-.1663.0622-.291.1037-.1247.0416-.2701.0416-.4156.0416-.2078 0-.374-.0208-.4988-.083-.1247-.0623-.2494-.1246-.3117-.2284-.0831-.1037-.1247-.2283-.1663-.3735-.0415-.1453-.0415-.3113-.0415-.4981zm5.7983 2.1377c0 .2283-.0416.415-.104.6018-.0623.1868-.1454.3321-.2701.4566-.1247.1246-.2494.2283-.4157.2906-.1662.0622-.3533.1038-.5403.1038s-.3741-.0416-.5404-.1038c-.1662-.0623-.3117-.166-.4156-.2906-.1247-.1245-.2078-.2905-.2702-.4566-.0623-.1868-.1039-.3735-.1039-.6018s.0416-.4151.104-.602c.0623-.1867.1662-.332.27-.4565.1248-.1245.2703-.2283.4157-.2906.1663-.0622.3325-.1037.5404-.1037.187 0 .374.0415.5403.1037.1663.0623.3118.166.4157.2906.1247.1245.2078.2906.2701.4566.0832.166.104.3736.104.6019zm-.665 0c0-.2698-.0624-.4981-.1871-.6642-.1247-.166-.291-.249-.4988-.249-.2078 0-.374.083-.4988.249-.1247.166-.187.3736-.187.6642 0 .2905.0623.498.187.6641.1247.166.291.249.4988.249.2078 0 .374-.083.4988-.249.1247-.166.187-.3943.187-.6641zm2.1405-2.7396c.1455 0 .2702.0207.3949.0415.1039.0208.2078.0415.2494.0623l-.1247.5396a2.6184 2.6184 0 00-.2079-.0623c-.0831-.0207-.1662-.0207-.2494-.0207-.1039 0-.187.0207-.2701.0415-.0832.0207-.1247.0622-.1663.1245-.0415.0623-.0623.1245-.0831.1868-.0208.083-.0208.166-.0208.249v.1868h1.0183v.5396h-1.0183v2.2415h-.665v-2.9886c0-.3528.1039-.6434.291-.851.187-.1867.478-.2905.852-.2905zm21.489-26.7522c-1.1846-.2076-2.4315-.3114-3.7408-.3114-1.3509 0-2.577.2283-3.637.6642-1.0599.4358-1.9743 1.0584-2.7225 1.8471-.7481.7887-1.3092 1.7434-1.7041 2.8433-.3949 1.1208-.582 2.3245-.582 3.6528 0 1.4113.1871 2.6565.5612 3.7358.374 1.0792.8729 1.9716 1.538 2.698.665.7264 1.4547 1.266 2.3691 1.6396.9144.3736 1.9328.5604 3.055.5604.852 0 1.6003-.1038 2.2445-.3114.5611-.1867 1.0391-.3528 1.4132-.5396 0 1.7642-.7482 3.1754-3.0966 3.7566-.956.2283-2.2445.166-3.9694-.3114-.478.8717-.7482 2.3868-.0208 3.2792.6443.768 2.2237.9132 3.2213.9132 2.2445 0 4.676-.9547 5.819-2.0132 1.4964-1.3697 2.2446-3.5074 2.2446-6.4338V8.5092c-.8106-.249-1.8289-.4773-2.9927-.6848zM44.017 20.7128c-.3533.249-.7897.4773-1.3508.664-.5612.1869-1.143.2699-1.7873.2699-1.143 0-2.099-.415-2.8264-1.2245-.7274-.8302-1.1015-2.117-1.1015-3.9018 0-1.6396.374-2.9679 1.143-3.9848.769-1.017 1.8497-1.515 3.2837-1.515.6234 0 1.143.0207 1.5586.083.4157.0622.769.1245 1.0391.1867v9.4225z"/></g></svg>